<svg xmlns="http://www.w3.org/2000/svg" width="30.885" height="27.673" viewBox="0 0 30.885 27.673"><defs><style>.a{fill:#20d072;}</style></defs><path class="a" d="M33.773,7.6a2.109,2.109,0,0,0-2.106,2.106v.179L9.188,17.625A2.1,2.1,0,0,0,5,17.909v7.054a2.1,2.1,0,0,0,4.188.284l3.169,1.093-1.019,2.786a.607.607,0,0,0,.371.791L20.8,33.241a.6.6,0,0,0,.21.037.632.632,0,0,0,.259-.056.61.61,0,0,0,.321-.346l1.087-2.983,8.988,3.095v.179a2.109,2.109,0,0,0,4.219,0V9.706A2.11,2.11,0,0,0,33.773,7.6ZM20.64,31.87l-7.931-2.9.815-2.23,7.987,2.749Z" transform="translate(-5 -7.6)"/></svg>