<svg xmlns="http://www.w3.org/2000/svg" width="26" height="31.039" viewBox="0 0 26 31.039"><defs><style>.a{fill:#c7d0db;}.b{fill:#20d072;}.c{fill:#fff;}</style></defs><g transform="translate(0 0)"><path class="a" d="M72.017,21.814V46.5a2.257,2.257,0,0,0,2.294,2.218H92.069A2.257,2.257,0,0,0,94.362,46.5V27.714a1.091,1.091,0,0,0-.336-.785l-6.818-6.592a1.167,1.167,0,0,0-.771-.325L74.391,19.6A2.259,2.259,0,0,0,72.017,21.814Z" transform="translate(-72.017 -19.596)"/><g transform="translate(3.654 1.922)"><path class="b" d="M75.2,23.55V48.222a2.262,2.262,0,0,0,2.3,2.223H95.248a2.262,2.262,0,0,0,2.3-2.223V29.448a1.1,1.1,0,0,0-.338-.79l-6.814-6.589a1.172,1.172,0,0,0-.776-.326l-12.037-.414A2.264,2.264,0,0,0,75.2,23.55Z" transform="translate(-75.202 -21.328)"/><rect class="c" width="14.911" height="3.515" rx="0.355" transform="translate(2.891 12.668)"/><rect class="c" width="11.55" height="3.515" rx="0.41" transform="translate(2.891 19.209)"/></g></g></svg>