<svg xmlns="http://www.w3.org/2000/svg" width="28.488" height="28.488" viewBox="0 0 28.488 28.488"><defs><style>.a{fill:#fff;}.b{fill:#dde3e9;}</style></defs><g transform="translate(0)"><circle class="a" cx="13.354" cy="13.354" r="13.354" transform="translate(0.89 0.794)"/><path class="b" d="M14.244,0A14.244,14.244,0,1,0,28.488,14.244,14.244,14.244,0,0,0,14.244,0ZM26.7,14.351a19.8,19.8,0,0,0-9.056-.281q-.6-1.506-1.3-2.968a26.869,26.869,0,0,0,7.292-5.024,12.393,12.393,0,0,1,3.073,8.167c0,.036-.005.069-.005.107ZM22.375,4.82a25.053,25.053,0,0,1-6.8,4.7,50.043,50.043,0,0,0-4.647-7.275A12.328,12.328,0,0,1,22.375,4.82ZM9.164,2.874a48.215,48.215,0,0,1,4.744,7.316,25.068,25.068,0,0,1-11.862,1.5A12.5,12.5,0,0,1,9.164,2.874ZM1.78,14.244c0-.267.023-.529.041-.791a26.928,26.928,0,0,0,3.159.207A26.809,26.809,0,0,0,14.709,11.8q.641,1.335,1.2,2.708a19.959,19.959,0,0,0-10.9,8.076,12.4,12.4,0,0,1-3.23-8.341ZM6.312,23.85a18.171,18.171,0,0,1,10.24-7.683,48.143,48.143,0,0,1,2.407,9.608A12.417,12.417,0,0,1,6.312,23.85ZM20.63,24.927A50.024,50.024,0,0,0,18.3,15.754a18.04,18.04,0,0,1,8.247.388,12.471,12.471,0,0,1-5.92,8.785Z" transform="translate(0)"/></g></svg>