<svg xmlns="http://www.w3.org/2000/svg" width="33.374" height="33.15" viewBox="0 0 33.374 33.15"><defs><style>.a{fill-rule:evenodd;}</style></defs><g transform="translate(-0.328 -1.512)"><g transform="translate(5.865 1.512)"><path class="a" d="M32.605,1.512a11.151,11.151,0,0,0-3.525,21.73c.557.1.762-.242.762-.536,0-.266-.01-1.144-.015-2.076-3.1.674-3.757-1.316-3.757-1.316a2.953,2.953,0,0,0-1.238-1.632c-1.012-.692.076-.678.076-.678a2.344,2.344,0,0,1,1.71,1.149,2.373,2.373,0,0,0,3.245.927,2.376,2.376,0,0,1,.708-1.491c-2.477-.282-5.08-1.238-5.08-5.511a4.315,4.315,0,0,1,1.149-2.993,4.007,4.007,0,0,1,.108-2.951s.936-.3,3.066,1.143a10.575,10.575,0,0,1,5.584,0c2.128-1.442,3.063-1.143,3.063-1.143a4,4,0,0,1,.11,2.951,4.306,4.306,0,0,1,1.147,2.993c0,4.282-2.608,5.225-5.091,5.5a2.666,2.666,0,0,1,.756,2.065c0,1.492-.013,2.692-.013,3.06,0,.3.2.644.766.535A11.151,11.151,0,0,0,32.605,1.512Z" transform="translate(-21.455 -1.512)"/><path d="M36.728,62.064c-.025.056-.112.072-.191.034s-.126-.112-.1-.168.111-.073.192-.035.127.113.1.168Zm-.137-.1.589.606c-.053.049-.157.026-.228-.052s-.086-.182-.032-.232.155-.026.228.052.088.182.032.232Zm-.106-.115.546.756c-.068.048-.18,0-.249-.1s-.069-.218,0-.265.179,0,.249.094.069.22,0,.268Zm0,0,.6.621c-.061.067-.191.049-.286-.043a.215.215,0,0,1-.063-.285c.062-.067.193-.048.289.043s.126.218.061.285Zm0,0,.831.36c-.027.088-.153.127-.279.09s-.209-.14-.183-.229.153-.129.28-.09.208.139.182.228Zm0,0,.912.067c0,.092-.1.168-.236.17s-.241-.071-.243-.162.1-.168.238-.17S39.965,64.166,39.965,64.257Zm0,0,.849-.144c.016.09-.076.182-.208.206s-.249-.031-.266-.121.078-.183.207-.208.25.031.267.122Zm0,0" transform="translate(-32.505 -46.055)"/></g><path d="M6.756,97.425h-2.8a.131.131,0,0,0-.131.131v1.371a.131.131,0,0,0,.131.131H5.045v1.7a3.31,3.31,0,0,1-.925.084c-.8,0-1.92-.292-1.92-2.754s1.166-2.786,2.26-2.786a4.436,4.436,0,0,1,1.615.247.133.133,0,0,0,.157-.129L6.545,94.1a.123.123,0,0,0-.05-.1,4.5,4.5,0,0,0-2.374-.435c-1.872,0-3.793.8-3.793,4.626s2.2,4.4,4.052,4.4a4.561,4.561,0,0,0,2.465-.656.113.113,0,0,0,.042-.1V97.556a.131.131,0,0,0-.131-.131Zm14.323-3.536H19.5a.131.131,0,0,0-.131.132v3.052H16.908V94.021a.131.131,0,0,0-.13-.132H15.2a.131.131,0,0,0-.131.132v8.263a.131.131,0,0,0,.131.132h1.579a.131.131,0,0,0,.13-.132V98.75H19.37l0,3.534a.132.132,0,0,0,.131.132h1.582a.131.131,0,0,0,.13-.132V94.021a.13.13,0,0,0-.13-.132Zm-12.361.188a1.028,1.028,0,1,0,1.018,1.028A1.023,1.023,0,0,0,8.718,94.077ZM9.492,96.6H7.918a.15.15,0,0,0-.137.147v5.465c0,.161.1.208.23.208H9.429c.156,0,.194-.077.194-.211V96.727a.131.131,0,0,0-.131-.132Zm17.718.012H25.643a.131.131,0,0,0-.13.132v4.052a1.773,1.773,0,0,1-.963.291c-.565,0-.715-.256-.715-.809V96.739a.131.131,0,0,0-.13-.132h-1.59a.132.132,0,0,0-.131.132v3.8c0,1.643.916,2.045,2.176,2.045a3.671,3.671,0,0,0,1.867-.571,3.193,3.193,0,0,0,.058.337.138.138,0,0,0,.115.072l1.012,0a.132.132,0,0,0,.131-.132V96.739a.132.132,0,0,0-.131-.132Zm4.283-.186a2.947,2.947,0,0,0-1.5.4v-2.8a.131.131,0,0,0-.13-.132H28.285a.131.131,0,0,0-.131.132v8.263a.131.131,0,0,0,.131.132h1.1a.13.13,0,0,0,.115-.07,2.616,2.616,0,0,0,.067-.381,2.834,2.834,0,0,0,1.873.613c1.439,0,2.264-.73,2.264-3.277s-1.318-2.88-2.209-2.88Zm-.619,4.656a1.879,1.879,0,0,1-.912-.263V98.2a2.1,2.1,0,0,1,.81-.263c.564-.051,1.108.12,1.108,1.466,0,1.42-.245,1.7-1.006,1.677Zm-16.692-.031c-.069,0-.246.028-.427.028-.582,0-.779-.27-.779-.621V98.13h1.185A.131.131,0,0,0,14.293,98V96.726a.131.131,0,0,0-.131-.132H12.977l0-1.565c0-.059-.03-.089-.1-.089H11.262c-.062,0-.1.028-.1.088v1.617s-.809.2-.864.211a.131.131,0,0,0-.094.126V98a.131.131,0,0,0,.13.132h.828v2.445c0,1.816,1.274,1.994,2.133,1.994a3.6,3.6,0,0,0,.94-.155.122.122,0,0,0,.074-.119v-1.118a.134.134,0,0,0-.131-.132Z" transform="translate(0 -67.925)"/></g></svg>