<svg xmlns="http://www.w3.org/2000/svg" width="53.73" height="53.73" viewBox="0 0 53.73 53.73"><defs><style>.a{fill:none;}.b{fill:#20d072;}</style></defs><path class="a" d="M0,0H53.73V53.73H0Z"/><path class="b" d="M8.6,25.444v6.291a4.5,4.5,0,0,0,2.328,3.94l11.194,6.112a4.445,4.445,0,0,0,4.3,0l11.194-6.112a4.5,4.5,0,0,0,2.328-3.94V25.444L26.422,32.832a4.445,4.445,0,0,1-4.3,0ZM22.124,3.817,3.251,14.116a2.254,2.254,0,0,0,0,3.94l18.873,10.3a4.445,4.445,0,0,0,4.3,0l18-9.828V31.757a2.239,2.239,0,0,0,4.478,0V17.407a2.251,2.251,0,0,0-1.164-1.97L26.422,3.817a4.567,4.567,0,0,0-4.3,0Z" transform="translate(2.592 4.063)"/></svg>