<svg xmlns="http://www.w3.org/2000/svg" width="49.566" height="39.814" viewBox="0 0 49.566 39.814"><defs><style>.a{fill:#eef1f4;}.b{fill:#c7d0db;}</style></defs><path class="a" d="M6,0H49.566a0,0,0,0,1,0,0V33.814a6,6,0,0,1-6,6H6a6,6,0,0,1-6-6V6A6,6,0,0,1,6,0Z"/><path class="b" d="M17.673,3.938h-.047a5.352,5.352,0,0,0-4.468,2.446A5.352,5.352,0,0,0,8.69,3.938H8.643A5.318,5.318,0,0,0,3.375,9.252a11.449,11.449,0,0,0,2.248,6.241,39.4,39.4,0,0,0,7.535,7.257,39.4,39.4,0,0,0,7.535-7.257,11.449,11.449,0,0,0,2.248-6.241A5.318,5.318,0,0,0,17.673,3.938Z" transform="translate(11.625 7.063)"/></svg>