<svg xmlns="http://www.w3.org/2000/svg" xmlns:xlink="http://www.w3.org/1999/xlink" width="26.009" height="26.011" viewBox="0 0 26.009 26.011"><defs><style>.a{fill:url(#a);}.b{fill:url(#b);}</style><radialGradient id="a" cx="0.133" cy="1.005" r="1.305" gradientTransform="translate(0)" gradientUnits="objectBoundingBox"><stop offset="0.09" stop-color="#fa8f21"/><stop offset="0.78" stop-color="#d82d7e"/></radialGradient><radialGradient id="b" cx="0.607" cy="1.05" r="1.029" gradientTransform="translate(0)" gradientUnits="objectBoundingBox"><stop offset="0.64" stop-color="#8c3aaa" stop-opacity="0"/><stop offset="1" stop-color="#8c3aaa"/></radialGradient></defs><path class="a" d="M8.67,13.006a4.335,4.335,0,1,1,4.335,4.335A4.335,4.335,0,0,1,8.67,13.006m-2.344,0a6.678,6.678,0,1,0,6.678-6.678,6.678,6.678,0,0,0-6.678,6.678M18.386,6.063A1.561,1.561,0,1,0,19.947,4.5h0a1.561,1.561,0,0,0-1.561,1.56M7.752,23.592a7.188,7.188,0,0,1-2.415-.447,4.042,4.042,0,0,1-1.5-.973,4.013,4.013,0,0,1-.973-1.495,7.181,7.181,0,0,1-.448-2.415c-.063-1.371-.077-1.783-.077-5.256s.014-3.884.077-5.256a7.236,7.236,0,0,1,.447-2.415,4.042,4.042,0,0,1,.973-1.5,4.008,4.008,0,0,1,1.5-.973,7.181,7.181,0,0,1,2.416-.448c1.371-.063,1.783-.077,5.253-.077s3.884.014,5.256.077a7.235,7.235,0,0,1,2.415.447,4.029,4.029,0,0,1,1.5.973,4.029,4.029,0,0,1,.973,1.5,7.182,7.182,0,0,1,.447,2.415c.063,1.372.076,1.783.076,5.256s-.012,3.884-.077,5.256a7.215,7.215,0,0,1-.447,2.415,4.306,4.306,0,0,1-2.469,2.468,7.181,7.181,0,0,1-2.415.447c-1.371.063-1.783.077-5.256.077s-3.884-.012-5.253-.077M7.644.079a9.537,9.537,0,0,0-3.157.6,6.379,6.379,0,0,0-2.3,1.5,6.354,6.354,0,0,0-1.5,2.3,9.539,9.539,0,0,0-.6,3.157C.015,9.03,0,9.474,0,13.006s.015,3.975.079,5.362a9.539,9.539,0,0,0,.6,3.157,6.358,6.358,0,0,0,1.5,2.3,6.4,6.4,0,0,0,2.3,1.5,9.545,9.545,0,0,0,3.157.6c1.388.063,1.83.079,5.362.079s3.975-.015,5.362-.079a9.539,9.539,0,0,0,3.157-.6,6.649,6.649,0,0,0,3.8-3.8,9.512,9.512,0,0,0,.6-3.157c.063-1.388.077-1.83.077-5.362s-.015-3.975-.077-5.362a9.536,9.536,0,0,0-.6-3.157,6.4,6.4,0,0,0-1.5-2.3,6.364,6.364,0,0,0-2.3-1.5,9.524,9.524,0,0,0-3.157-.6C16.982.016,16.538,0,13.006,0S9.03.015,7.643.079"/><path class="b" d="M8.67,13.006a4.335,4.335,0,1,1,4.335,4.335A4.335,4.335,0,0,1,8.67,13.006m-2.344,0a6.678,6.678,0,1,0,6.678-6.678,6.678,6.678,0,0,0-6.678,6.678M18.386,6.063A1.561,1.561,0,1,0,19.947,4.5h0a1.561,1.561,0,0,0-1.561,1.56M7.752,23.592a7.188,7.188,0,0,1-2.415-.447,4.042,4.042,0,0,1-1.5-.973,4.013,4.013,0,0,1-.973-1.495,7.181,7.181,0,0,1-.448-2.415c-.063-1.371-.077-1.783-.077-5.256s.014-3.884.077-5.256a7.236,7.236,0,0,1,.447-2.415,4.042,4.042,0,0,1,.973-1.5,4.008,4.008,0,0,1,1.5-.973,7.181,7.181,0,0,1,2.416-.448c1.371-.063,1.783-.077,5.253-.077s3.884.014,5.256.077a7.235,7.235,0,0,1,2.415.447,4.029,4.029,0,0,1,1.5.973,4.029,4.029,0,0,1,.973,1.5,7.182,7.182,0,0,1,.447,2.415c.063,1.372.076,1.783.076,5.256s-.012,3.884-.077,5.256a7.215,7.215,0,0,1-.447,2.415,4.306,4.306,0,0,1-2.469,2.468,7.181,7.181,0,0,1-2.415.447c-1.371.063-1.783.077-5.256.077s-3.884-.012-5.253-.077M7.644.079a9.537,9.537,0,0,0-3.157.6,6.379,6.379,0,0,0-2.3,1.5,6.354,6.354,0,0,0-1.5,2.3,9.539,9.539,0,0,0-.6,3.157C.015,9.03,0,9.474,0,13.006s.015,3.975.079,5.362a9.539,9.539,0,0,0,.6,3.157,6.358,6.358,0,0,0,1.5,2.3,6.4,6.4,0,0,0,2.3,1.5,9.545,9.545,0,0,0,3.157.6c1.388.063,1.83.079,5.362.079s3.975-.015,5.362-.079a9.539,9.539,0,0,0,3.157-.6,6.649,6.649,0,0,0,3.8-3.8,9.512,9.512,0,0,0,.6-3.157c.063-1.388.077-1.83.077-5.362s-.015-3.975-.077-5.362a9.536,9.536,0,0,0-.6-3.157,6.4,6.4,0,0,0-1.5-2.3,6.364,6.364,0,0,0-2.3-1.5,9.524,9.524,0,0,0-3.157-.6C16.982.016,16.538,0,13.006,0S9.03.015,7.643.079"/></svg>