<svg xmlns="http://www.w3.org/2000/svg" width="99.909" height="87.421" viewBox="0 0 99.909 87.421"><defs><style>.a{fill:#11d072;}.b{fill:#003f63;}</style></defs><g transform="translate(-134 -148.5)"><path class="a" d="M134,186.925s27.131-6.029,46.94,9.044l-7.321,15.5S170.174,191.232,134,186.925Z" transform="translate(0 -21.2)"/><path class="a" d="M278.648,148.5S237.306,164,233,216.972h16.364S245.058,178.645,278.648,148.5Z" transform="translate(-56.366 0)"/><path class="b" d="M298.392,220.857l28.721,12.249a.281.281,0,0,1,.171.258v7.38a.281.281,0,0,1-.171.258l-28.721,12.249a.281.281,0,0,1-.392-.259v-8.422a.281.281,0,0,1,.183-.264l18.891-6.981a.281.281,0,0,0,0-.529l-18.881-6.567a.281.281,0,0,1-.189-.265v-8.849A.281.281,0,0,1,298.392,220.857Z" transform="translate(-93.374 -41.184)"/><path class="b" d="M164.892,253.253,136.171,241a.281.281,0,0,1-.171-.258v-7.38a.281.281,0,0,1,.171-.258l28.721-12.249a.281.281,0,0,1,.391.259v8.422a.281.281,0,0,1-.183.264l-18.891,6.981a.281.281,0,0,0,0,.529L165.1,243.88a.281.281,0,0,1,.189.265v8.849A.281.281,0,0,1,164.892,253.253Z" transform="translate(-1.139 -41.184)"/><path class="a" d="M250,335.5h10.335l1.292,6.89Z" transform="translate(-66.045 -106.47)"/><g transform="translate(142.562 219.741)"><path class="b" d="M153.883,320.863v-1.179l3.11-4.13h-2.853V313.93h5.269V315.1l-3.16,4.219h3.269v1.545Z" transform="translate(-153.883 -313.93)"/><path class="b" d="M171.665,320.863l-2.05-6.933h1.813l.981,3.536q.069.247.119.495t.089.466c.026-.158.058-.315.094-.471s.084-.322.144-.5l.99-2.674h1.406l.981,2.674q.089.258.153.48c.043.149.081.292.114.431q.019-.188.059-.406c.026-.145.066-.313.119-.505l.981-3.526h1.763l-2.07,6.933h-1.367l-1.506-3.664-1.377,3.664Z" transform="translate(-162.84 -313.93)"/><path class="b" d="M192.661,320.863l2.754-6.933H196.9l2.724,6.933h-1.793l-.466-1.258H194.88l-.466,1.258Zm3.011-3.4-.307.822h1.515l-.317-.841-.223-.644q-.114-.327-.213-.664-.1.326-.208.644T195.672,317.466Z" transform="translate(-175.962 -313.93)"/><path class="b" d="M211.98,320.863V313.93h3.15a2.557,2.557,0,0,1,1.224.287,2.2,2.2,0,0,1,.852.787,2.1,2.1,0,0,1,.312,1.134,2.251,2.251,0,0,1-1.258,2.07l1.545,2.654h-2.03l-1.357-2.407h-.743v2.407Zm1.694-3.744h1.267a.778.778,0,0,0,.6-.238.9.9,0,0,0,.218-.633.808.808,0,0,0-.248-.619.973.973,0,0,0-.693-.233h-1.149Z" transform="translate(-186.961 -313.93)"/><path class="b" d="M229.805,320.863v-5.378h-2.07V313.93h5.982v1.555h-2.129v5.378Z" transform="translate(-195.931 -313.93)"/></g><g transform="translate(186.21 219.741)"><path class="b" d="M257.309,320.863v-5.378h-2.07V313.93h5.983v1.555h-2.129v5.378Z" transform="translate(-255.238 -313.93)"/><path class="b" d="M269.891,320.863l2.753-6.933h1.486l2.724,6.933h-1.793l-.465-1.258H272.11l-.466,1.258Zm3.011-3.4-.307.822h1.515l-.317-.841-.222-.644c-.077-.218-.147-.439-.214-.664q-.1.326-.208.644T272.9,317.466Z" transform="translate(-263.581 -313.93)"/><path class="b" d="M289.21,320.863V313.93h1.783v5.378h3.061v1.555Z" transform="translate(-274.58 -313.93)"/><path class="b" d="M304.527,320.863V313.93h4.913v1.5h-3.19v1.2h2.764v1.426H306.25v1.318h3.309v1.5Z" transform="translate(-283.301 -313.93)"/><path class="b" d="M320.766,320.863V313.93h1.595l3.12,4.259q-.049-.435-.084-.817t-.045-.817c-.007-.29-.009-.627-.009-1.01V313.93h1.733v6.933h-1.614l-3.08-4.169c.033.29.057.534.074.733s.028.39.035.574.01.4.01.644v2.219Z" transform="translate(-292.547 -313.93)"/><path class="b" d="M341.488,320.863v-5.378h-2.07V313.93H345.4v1.555h-2.13v5.378Z" transform="translate(-303.166 -313.93)"/></g></g></svg>