<svg xmlns="http://www.w3.org/2000/svg" width="36.596" height="36.596" viewBox="0 0 36.596 36.596"><defs><style>.a{fill:#c7d0db;}.b{fill:#fff;}</style></defs><g transform="translate(-952 -489)"><path class="a" d="M23.177,2.045v.006a16.747,16.747,0,0,0-11.2,3.18A16.487,16.487,0,0,0,6.96,25.8l-.066.893-4.74,9.713a1.53,1.53,0,0,0,2.078,2.019l9.868-5,.459-.048a16.733,16.733,0,0,0,20.713-4.854A16.53,16.53,0,0,0,33.742,6.892,16.7,16.7,0,0,0,23.177,2.045Z" transform="translate(950.002 486.999)"/><g transform="translate(961.453 503.18)"><circle class="b" cx="2.363" cy="2.363" r="2.363" transform="translate(0 0)"/><circle class="b" cx="2.363" cy="2.363" r="2.363" transform="translate(7.878 0)"/><circle class="b" cx="2.363" cy="2.363" r="2.363" transform="translate(15.756 0)"/></g></g></svg>